<?xml version="1.0" encoding="utf-8"?>
<!-- Generator: Adobe Illustrator 25.1.0, SVG Export Plug-In . SVG Version: 6.00 Build 0)  -->
<svg version="1.1" xmlns="http://www.w3.org/2000/svg" xmlns:xlink="http://www.w3.org/1999/xlink" x="0px" y="0px"
	 viewBox="0 0 469 167" style="enable-background:new 0 0 469 167;" xml:space="preserve">
<style type="text/css">
	.st0{fill:#5C33FF;}
	.st1{fill:#F2F2F2;}
	.st2{opacity:0.35;fill:#F2F2F2;}
	.st3{opacity:0.5;fill:#F2F2F2;}
	.st4{fill:none;}
	.st5{font-family:'STHeitiTC-Light';}
	.st6{font-size:70px;}
	.st7{font-family:'STHeitiTC-Medium';}
	.st8{font-size:71px;}
	.st9{letter-spacing:-4;}
	.st10{fill:none;stroke:#5C33FF;stroke-miterlimit:10;}
</style>
<g id="Layer_1">
	<path class="st0" d="M349.4,165.6L349.4,165.6c-0.1,0.1-0.2,0.3-0.3,0.4c-0.7,1.2-3.3,1-5.9-0.5c-2.6-1.5-4.1-3.7-3.4-4.9
		c0.1-0.1,0.2-0.3,0.3-0.4l-0.1-0.1l33.5-58l9.4,5.4L349.4,165.6z"/>
</g>
<g id="Layer_2">
	<g>
		<g>
			<ellipse class="st0" cx="397.3" cy="69.9" rx="53.1" ry="52.9"/>
		</g>
		<g>
			<path class="st0" d="M404.4,10.1c-0.9,0.9-2.1,1.3-3.3,1.2l-0.8,3c0,1.9-0.7,3.4-2.6,3.4c-1.9,0-2.6-1.5-2.6-3.4l-0.8-3.2
				c-1.4,0.4-3,0-4.2-1.1c-1.7-1.7,0.8-2,2.4-3.6c1.7-1.7-0.1-2.4,3.7-2.4c0.7,0,1.4,0,2,0c2.9,0,2,0.7,3.7,2.4
				C403.6,8.1,406.1,8.4,404.4,10.1z"/>
		</g>
		<g>
			<path class="st0" d="M356.2,25.9c0,1.3-0.6,2.5-1.5,3.2l1.6,2.7c1.3,1.3,2,2.9,0.6,4.3c-1.3,1.3-2.9,0.7-4.3-0.6l-2.8-1.7
				c-0.7,1.3-2.1,2.2-3.7,2.2c-2.4,0-0.9-1.9-0.9-4.3c0-2.4-1.5-4.3,0.9-4.3c0.7,0,1.3,0.1,1.9,0.4c-0.3-0.6-0.4-1.2-0.4-1.9
				c0-2.4,1.9-0.9,4.3-0.9C354.2,25,356.2,23.5,356.2,25.9z"/>
		</g>
		<g>
			<path class="st0" d="M347,104.9c1.3,0,2.5,0.6,3.2,1.5l2.7-1.6c1.3-1.3,2.9-2,4.3-0.6c1.3,1.3,0.7,2.9-0.6,4.3l-1.7,2.8
				c1.3,0.7,2.2,2.1,2.2,3.7c0,2.4-1.9,0.9-4.3,0.9c-2.4,0-4.3,1.5-4.3-0.9c0-0.7,0.2-1.3,0.4-1.9c-0.6,0.3-1.2,0.4-1.9,0.4
				c-2.4,0-0.9-1.9-0.9-4.3C346.1,106.9,344.6,104.9,347,104.9z"/>
		</g>
		<g>
			<path class="st0" d="M404.4,129.9c-0.9-0.9-2.1-1.3-3.3-1.2l-0.8-3c0-1.9-0.7-3.4-2.6-3.4c-1.9,0-2.6,1.5-2.6,3.4l-0.8,3.2
				c-1.4-0.4-3,0-4.2,1.1c-1.7,1.7,0.8,2,2.4,3.6c1.7,1.7,2,4.1,3.7,2.4c0.5-0.5,0.8-1,1-1.6c0.2,0.6,0.5,1.1,1,1.6
				c1.7,1.7,2-0.7,3.7-2.4C403.6,131.9,406.1,131.6,404.4,129.9z"/>
		</g>
		<g>
			<path class="st0" d="M457.3,62.9c-0.9,0.9-1.3,2.1-1.3,3.3l-3,0.8c-1.9,0-3.5,0.7-3.5,2.6s1.6,2.6,3.5,2.6l3.2,0.8
				c-0.4,1.4,0,3,1.1,4.2c1.7,1.7,2-0.7,3.7-2.4c1.7-1.7,4.1-2,2.4-3.7c-0.5-0.5-1-0.8-1.6-1c0.6-0.2,1.1-0.5,1.6-1
				c1.7-1.7-0.8-2-2.4-3.7C459.3,63.6,459,61.2,457.3,62.9z"/>
		</g>
		<g>
			<path class="st0" d="M337.2,77.1c0.9-0.9,1.3-2.1,1.3-3.3l3-0.8c1.9,0,3.5-0.7,3.5-2.6c0-1.9-1.6-2.6-3.5-2.6l-3.2-0.8
				c0.4-1.4,0-3-1.1-4.2c-1.7-1.7-2,0.7-3.7,2.4c-1.7,1.7-4.1,2-2.4,3.7c0.5,0.5,1,0.8,1.6,1c-0.6,0.2-1.1,0.5-1.6,1
				c-1.7,1.7,0.8,2,2.4,3.7C335.2,76.3,335.5,78.8,337.2,77.1z"/>
		</g>
		<g>
			<path class="st0" d="M448.4,35.9c-1.3,0-2.5-0.6-3.2-1.5l-2.7,1.6c-1.3,1.3-2.9,1.9-4.3,0.6c-1.3-1.3-0.7-2.9,0.6-4.3l1.7-2.8
				c-1.3-0.7-2.2-2.1-2.2-3.7c0-2.4,1.9-0.9,4.3-0.9c2.4,0,4.3-1.5,4.3,0.9c0,0.7-0.2,1.3-0.4,1.9c0.6-0.3,1.2-0.4,1.9-0.4
				c2.4,0,0.9,1.9,0.9,4.3C449.3,34,450.8,35.9,448.4,35.9z"/>
		</g>
		<g>
			<path class="st0" d="M437.5,115c0-1.3,0.6-2.5,1.5-3.2l-1.6-2.7c-1.3-1.3-2-2.9-0.6-4.3c1.3-1.3,2.9-0.7,4.3,0.6l2.8,1.7
				c0.7-1.3,2.1-2.2,3.7-2.2c2.4,0,0.9,1.9,0.9,4.3c0,2.4,0.8,2.7-0.9,4.3c-0.7,0.6-1.1,0.9-1.4,1.4c-1.8,2.6-1.9,0.9-4.3,0.9
				C439.4,115.8,437.5,117.3,437.5,115z"/>
		</g>
		<path class="st0" d="M372.3,17.9c0.4,0.8,0.8,5.4-1.1,6.4c-1.9,1-5.4-1.9-5.8-2.8s0.7-2.3,2.6-3.3
			C369.9,17.2,371.8,17.1,372.3,17.9z"/>
		<path class="st0" d="M372.3,116c0.4,0.8,0.8,5.4-1.1,6.4c-1.9,1-5.4-1.9-5.8-2.8c-0.4-0.8,0.7-2.3,2.6-3.3
			C369.9,115.3,371.8,115.2,372.3,116z"/>
		<path class="st0" d="M421.8,17.9c-0.4,0.8-0.8,5.4,1.1,6.4c1.9,1,5.4-1.9,5.8-2.8s-0.7-2.3-2.6-3.3
			C424.1,17.2,422.2,17.1,421.8,17.9z"/>
		<path class="st0" d="M421.8,116c-0.4,0.8-0.8,5.4,1.1,6.4c1.9,1,5.4-1.9,5.8-2.8c0.4-0.8-0.7-2.3-2.6-3.3
			C424.1,115.3,422.2,115.2,421.8,116z"/>
		<ellipse class="st1" cx="378.3" cy="43.2" rx="5.6" ry="5.6"/>
		<ellipse class="st1" cx="388.6" cy="83.6" rx="7.3" ry="7.3"/>
		<ellipse class="st2" cx="411.1" cy="37.2" rx="7.3" ry="7.3"/>
		<ellipse class="st1" cx="413.6" cy="61.3" rx="3.9" ry="3.9"/>
		<ellipse class="st3" cx="400.7" cy="112" rx="3.9" ry="3.9"/>
	</g>
</g>
<g id="Layer_3">
	<rect x="-0.5" y="31" class="st4" width="326.5" height="126"/>
	<text transform="matrix(1 0 0 1 -0.457 86.7192)"><tspan x="0" y="0" class="st0 st5 st6">NEARME</tspan><tspan x="0" y="54" class="st0 st7 st8 st9">vaccines</tspan></text>
	<line class="st10" x1="302" y1="165" x2="302" y2="2"/>
</g>
</svg>
