<svg xmlns="http://www.w3.org/2000/svg" viewBox="0 0 599.06 199.36"><defs><style>.cls-1{fill:none;stroke-linecap:round;stroke-width:12.36px;}.cls-1,.cls-3{stroke:#d9003c;stroke-miterlimit:10;}.cls-2{font-size:82px;fill:#d9003c;font-family:STHeitiTC-Medium, Heiti TC;font-weight:500;letter-spacing:-0.05em;}.cls-3{letter-spacing:-0.05em;}</style></defs><g id="Layer_1" data-name="Layer 1"><path class="cls-1" d="M77.05,6.4C34.7,105.3,91,99.86,106.05,99.86c12.77,0,59.18,5.44,33.36-93.46" transform="translate(-0.94 -0.22)"/><path class="cls-1" d="M14.4,6.4C-10.26,105.3,34.52,99.86,48,99.86c11.22,0,71.07,6.43,29-93.46" transform="translate(-0.94 -0.22)"/><path class="cls-1" d="M131.94,193.4c-42.35-98.9,13.94-93.46,29-93.46,12.77,0,59.18-5.44,33.36,93.46" transform="translate(-0.94 -0.22)"/><path class="cls-1" d="M69.28,193.4C44.63,94.5,89.41,99.94,102.93,99.94c11.22,0,71.07-6.42,29,93.46" transform="translate(-0.94 -0.22)"/></g><g id="Layer_2" data-name="Layer 2"><text class="cls-2" transform="translate(194.84 119.2)">work<tspan class="cls-3" x="171.3" y="0">mend</tspan></text></g></svg>